G04 #@! TF.GenerationSoftware,KiCad,Pcbnew,8.0.4*
G04 #@! TF.CreationDate,2024-08-15T05:56:15-07:00*
G04 #@! TF.ProjectId,fixer-otg,66697865-722d-46f7-9467-2e6b69636164,rev?*
G04 #@! TF.SameCoordinates,Original*
G04 #@! TF.FileFunction,Copper,L2,Bot*
G04 #@! TF.FilePolarity,Positive*
%FSLAX46Y46*%
G04 Gerber Fmt 4.6, Leading zero omitted, Abs format (unit mm)*
G04 Created by KiCad (PCBNEW 8.0.4) date 2024-08-15 05:56:15*
%MOMM*%
%LPD*%
G01*
G04 APERTURE LIST*
G04 Aperture macros list*
%AMHorizOval*
0 Thick line with rounded ends*
0 $1 width*
0 $2 $3 position (X,Y) of the first rounded end (center of the circle)*
0 $4 $5 position (X,Y) of the second rounded end (center of the circle)*
0 Add line between two ends*
20,1,$1,$2,$3,$4,$5,0*
0 Add two circle primitives to create the rounded ends*
1,1,$1,$2,$3*
1,1,$1,$4,$5*%
G04 Aperture macros list end*
G04 #@! TA.AperFunction,ComponentPad*
%ADD10O,1.224000X1.524000*%
G04 #@! TD*
G04 #@! TA.AperFunction,ComponentPad*
%ADD11HorizOval,1.224000X0.118202X0.092349X-0.118202X-0.092349X0*%
G04 #@! TD*
G04 #@! TA.AperFunction,ComponentPad*
%ADD12O,1.524000X1.224000*%
G04 #@! TD*
G04 #@! TA.AperFunction,ComponentPad*
%ADD13C,2.500000*%
G04 #@! TD*
G04 #@! TA.AperFunction,ComponentPad*
%ADD14HorizOval,1.224000X0.092349X-0.118202X-0.092349X0.118202X0*%
G04 #@! TD*
G04 #@! TA.AperFunction,ComponentPad*
%ADD15HorizOval,1.224000X0.134819X-0.065756X-0.134819X0.065756X0*%
G04 #@! TD*
G04 #@! TA.AperFunction,ComponentPad*
%ADD16O,1.000000X2.100000*%
G04 #@! TD*
G04 #@! TA.AperFunction,ComponentPad*
%ADD17O,1.000000X1.600000*%
G04 #@! TD*
G04 #@! TA.AperFunction,ViaPad*
%ADD18C,0.600000*%
G04 #@! TD*
G04 #@! TA.AperFunction,Conductor*
%ADD19C,0.250000*%
G04 #@! TD*
G04 #@! TA.AperFunction,Conductor*
%ADD20C,0.200000*%
G04 #@! TD*
G04 #@! TA.AperFunction,Profile*
%ADD21C,0.050000*%
G04 #@! TD*
G04 APERTURE END LIST*
D10*
X91057300Y-88742700D03*
X91057300Y-83742700D03*
D11*
X151826973Y-90859454D03*
X155767027Y-87781146D03*
X136277073Y-121991554D03*
X140217127Y-118913246D03*
D10*
X77157300Y-88742700D03*
X77157300Y-83742700D03*
D12*
X81607300Y-86242700D03*
X86607300Y-86242700D03*
D13*
X132618200Y-102886800D03*
D10*
X77157300Y-105942700D03*
X77157300Y-100942700D03*
D14*
X115313746Y-91098973D03*
X118392054Y-95039027D03*
X132429046Y-113005673D03*
X135507354Y-116945727D03*
D15*
X112753015Y-67404072D03*
X117246985Y-69595928D03*
D13*
X143500000Y-81500000D03*
X93195300Y-80395600D03*
D12*
X67707300Y-86242700D03*
X72707300Y-86242700D03*
D13*
X71229000Y-80243900D03*
X102000000Y-60500000D03*
D12*
X109407300Y-86242700D03*
X114407300Y-86242700D03*
D11*
X149830873Y-111402154D03*
X153770927Y-108323846D03*
D14*
X123871446Y-102052373D03*
X126949754Y-105992427D03*
D10*
X91057300Y-105942700D03*
X91057300Y-100942700D03*
D11*
X141273173Y-100448854D03*
X145213227Y-97370546D03*
D14*
X127433046Y-134548373D03*
X130511354Y-138488427D03*
D13*
X127000000Y-124000000D03*
D12*
X95507300Y-69042700D03*
X100507300Y-69042700D03*
D10*
X77157300Y-71542700D03*
X77157300Y-66542700D03*
D14*
X156536646Y-92826973D03*
X159614954Y-96767027D03*
D10*
X104957300Y-71542700D03*
X104957300Y-66542700D03*
D14*
X137425146Y-91462973D03*
X140503454Y-95403027D03*
D11*
X119161673Y-100084854D03*
X123101727Y-97006546D03*
D12*
X67707300Y-69042700D03*
X72707300Y-69042700D03*
D13*
X93062700Y-114216200D03*
D14*
X140986746Y-123959073D03*
X144065054Y-127899127D03*
D11*
X122723273Y-132580954D03*
X126663327Y-129502646D03*
D14*
X145982846Y-102416273D03*
X149061154Y-106356327D03*
D12*
X95507300Y-86242700D03*
X100507300Y-86242700D03*
X81607300Y-51842700D03*
X86607300Y-51842700D03*
D14*
X118875346Y-123595073D03*
X121953654Y-127535127D03*
D10*
X104957300Y-88742700D03*
X104957300Y-83742700D03*
D11*
X127719373Y-111038154D03*
X131659427Y-107959846D03*
D12*
X81607300Y-69042700D03*
X86607300Y-69042700D03*
D14*
X110317646Y-112641673D03*
X113395954Y-116581727D03*
X154540546Y-113369673D03*
X157618854Y-117309727D03*
D10*
X91057300Y-71542700D03*
X91057300Y-66542700D03*
D12*
X95507300Y-103442700D03*
X100507300Y-103442700D03*
D13*
X148467800Y-122442500D03*
D12*
X67707300Y-103442700D03*
X72707300Y-103442700D03*
D15*
X131753015Y-75904072D03*
X136246985Y-78095928D03*
D10*
X91057300Y-54342700D03*
X91057300Y-49342700D03*
D11*
X132715473Y-89495454D03*
X136655527Y-86417146D03*
D16*
X128422400Y-76291000D03*
D17*
X128422400Y-72111000D03*
D16*
X119782400Y-76291000D03*
D17*
X119782400Y-72111000D03*
D11*
X114165573Y-121627554D03*
X118105627Y-118549246D03*
D12*
X81607300Y-103442700D03*
X86607300Y-103442700D03*
D18*
X124000000Y-87000000D03*
X120500000Y-84500000D03*
X125000000Y-95000000D03*
X105022702Y-108977298D03*
X127000000Y-97000000D03*
X126000000Y-96000000D03*
X125000000Y-93500000D03*
X127500000Y-93500000D03*
X122000000Y-93000000D03*
X121200000Y-82007346D03*
X124000000Y-84000000D03*
X119470698Y-82029302D03*
X107000000Y-93500000D03*
X105987000Y-92402700D03*
X103139799Y-102814797D03*
X96594300Y-78500000D03*
X117325000Y-91805031D03*
X106500000Y-79500000D03*
X127764239Y-92120497D03*
X112000000Y-109500000D03*
X102000000Y-104829699D03*
X121000000Y-97000000D03*
X118000004Y-98500000D03*
X120500000Y-95500000D03*
X112000000Y-106150000D03*
X121000002Y-102500000D03*
X116500000Y-96500000D03*
X127500000Y-81500000D03*
X125500000Y-79500000D03*
X94000000Y-97000000D03*
X105000000Y-99000000D03*
X104467988Y-100612996D03*
X94000000Y-99000000D03*
X111500000Y-108000000D03*
X103223348Y-100345421D03*
X121000000Y-119000000D03*
X115000000Y-107000000D03*
X122500000Y-117500000D03*
X103454803Y-101509001D03*
X114098353Y-106350000D03*
X126500000Y-88000000D03*
X110000000Y-98500000D03*
X94000000Y-98000000D03*
X104699679Y-99795180D03*
D19*
X125000000Y-93500000D02*
X125000000Y-95000000D01*
X124000000Y-87000000D02*
X121500000Y-84500000D01*
X100074881Y-68000000D02*
X104975117Y-68000000D01*
X93195300Y-74879581D02*
X100074881Y-68000000D01*
X93195300Y-80395600D02*
X93195300Y-74879581D01*
X126000000Y-96000000D02*
X127000000Y-97000000D01*
X106000000Y-66975117D02*
X106000000Y-64500000D01*
D20*
X99783800Y-114216200D02*
X105022702Y-108977298D01*
X93062700Y-114216200D02*
X99783800Y-114216200D01*
D19*
X104975117Y-68000000D02*
X106000000Y-66975117D01*
X121500000Y-84500000D02*
X120500000Y-84500000D01*
X106000000Y-64500000D02*
X102000000Y-60500000D01*
D20*
X121200000Y-82007346D02*
X123192654Y-84000000D01*
X127000000Y-93500000D02*
X126500000Y-93000000D01*
X125419239Y-93000000D02*
X125269239Y-92850000D01*
X126500000Y-93000000D02*
X125419239Y-93000000D01*
X124580761Y-93000000D02*
X122000000Y-93000000D01*
X124730761Y-92850000D02*
X124580761Y-93000000D01*
X123192654Y-84000000D02*
X124000000Y-84000000D01*
X125269239Y-92850000D02*
X124730761Y-92850000D01*
X127500000Y-93500000D02*
X127000000Y-93500000D01*
X107000000Y-93500000D02*
X108589762Y-93500000D01*
X118151057Y-70500000D02*
X117246985Y-69595928D01*
X129632896Y-76132896D02*
X129632896Y-75778051D01*
X134342913Y-80000000D02*
X133500000Y-80000000D01*
D19*
X136394114Y-77742372D02*
X136394114Y-78580996D01*
D20*
X129632896Y-75778051D02*
X124354845Y-70500000D01*
X124354845Y-70500000D02*
X118151057Y-70500000D01*
X133500000Y-80000000D02*
X129632896Y-76132896D01*
X135969114Y-78373799D02*
X134342913Y-80000000D01*
X108589762Y-93500000D02*
X119470698Y-82619064D01*
X119470698Y-82619064D02*
X119470698Y-82029302D01*
X135969114Y-78095928D02*
X135969114Y-78373799D01*
D19*
X104747583Y-101287996D02*
X104666600Y-101287996D01*
X105987000Y-100048579D02*
X104747583Y-101287996D01*
X105987000Y-92402700D02*
X105987000Y-100048579D01*
X104666600Y-101287996D02*
X103139799Y-102814797D01*
X127448773Y-91805031D02*
X117325000Y-91805031D01*
X97594300Y-79500000D02*
X106500000Y-79500000D01*
X96594300Y-78500000D02*
X97594300Y-79500000D01*
X127764239Y-92120497D02*
X127448773Y-91805031D01*
X112000000Y-109500000D02*
X106670301Y-109500000D01*
X106670301Y-109500000D02*
X102000000Y-104829699D01*
D20*
X120500000Y-95500000D02*
X120500000Y-96500000D01*
X118000004Y-100149996D02*
X118000004Y-98500000D01*
X120500000Y-96500000D02*
X121000000Y-97000000D01*
X112000000Y-106150000D02*
X118000004Y-100149996D01*
D19*
X120999998Y-102499996D02*
X121000002Y-102500000D01*
X120999998Y-99499998D02*
X120999998Y-102499996D01*
X116500000Y-96500000D02*
X118000000Y-96500000D01*
X118000000Y-96500000D02*
X120999998Y-99499998D01*
D20*
X125500000Y-79500000D02*
X127500000Y-81500000D01*
D19*
X72707300Y-69042699D02*
X72707300Y-69292700D01*
X94000000Y-97000000D02*
X103000000Y-97000000D01*
X72707300Y-86242699D02*
X72707300Y-103442699D01*
X86607300Y-51842699D02*
X86607300Y-55142699D01*
X72707300Y-69292700D02*
X72804000Y-69389400D01*
X103000000Y-97000000D02*
X105000000Y-99000000D01*
X72804000Y-86145999D02*
X72707300Y-86242699D01*
X86607300Y-55142699D02*
X72707300Y-69042699D01*
X72804000Y-69389400D02*
X72804000Y-86145999D01*
X140217126Y-119782874D02*
X130497353Y-129502647D01*
X130497353Y-129502647D02*
X126663326Y-129502647D01*
X144086753Y-118913247D02*
X140217126Y-118913247D01*
X153770926Y-109229074D02*
X144086753Y-118913247D01*
X140217126Y-118913247D02*
X140217126Y-119782874D01*
X153770926Y-108323847D02*
X153770926Y-109229074D01*
X86607300Y-86242699D02*
X86607300Y-103442699D01*
X102854992Y-99000000D02*
X104467988Y-100612996D01*
X104957299Y-66542700D02*
X102914599Y-64500000D01*
X86607300Y-69042699D02*
X86607300Y-86242699D01*
X91149999Y-64500000D02*
X86607300Y-69042699D01*
X94000000Y-99000000D02*
X102854992Y-99000000D01*
X102914599Y-64500000D02*
X91149999Y-64500000D01*
X125898155Y-127535126D02*
X121953653Y-127535126D01*
X121953653Y-127535126D02*
X121953653Y-118453653D01*
X135507353Y-116945726D02*
X135507353Y-117925928D01*
X121953653Y-118453653D02*
X111500000Y-108000000D01*
X149061153Y-106356326D02*
X146096753Y-106356326D01*
X146096753Y-106356326D02*
X135507353Y-116945726D01*
X135507353Y-117925928D02*
X125898155Y-127535126D01*
X104957299Y-83742700D02*
X91057299Y-83742700D01*
X91994301Y-79005699D02*
X91057299Y-79942701D01*
X91999999Y-100000000D02*
X91994301Y-100005698D01*
X91994301Y-100005698D02*
X91994301Y-84679702D01*
X91057299Y-79942701D02*
X91057299Y-83742700D01*
X91994301Y-67479702D02*
X91994301Y-79005699D01*
X91057299Y-100942700D02*
X91994301Y-100005698D01*
X102877927Y-100000000D02*
X91999999Y-100000000D01*
X91057299Y-66542700D02*
X91994301Y-67479702D01*
X91994301Y-84679702D02*
X91057299Y-83742700D01*
X103223348Y-100345421D02*
X102877927Y-100000000D01*
D20*
X115000000Y-107000000D02*
X115000000Y-110000000D01*
D19*
X142155919Y-94313240D02*
X145213226Y-97370547D01*
X123101726Y-97006547D02*
X124081928Y-97006547D01*
X124081928Y-97006547D02*
X126775235Y-94313240D01*
X122665515Y-117500000D02*
X122500000Y-117500000D01*
X145213226Y-97916789D02*
X135170168Y-107959847D01*
X131659426Y-108506089D02*
X122665515Y-117500000D01*
X126775235Y-94313240D02*
X142155919Y-94313240D01*
X121000000Y-119000000D02*
X120549247Y-118549247D01*
X131659426Y-107959847D02*
X131659426Y-108506089D01*
D20*
X115000000Y-110000000D02*
X122500000Y-117500000D01*
D19*
X120549247Y-118549247D02*
X118105626Y-118549247D01*
X135170168Y-107959847D02*
X131659426Y-107959847D01*
X145213226Y-97370547D02*
X145213226Y-97916789D01*
X101521105Y-103442699D02*
X103454803Y-101509001D01*
X101444298Y-85305701D02*
X113470302Y-85305701D01*
X100507300Y-103442699D02*
X101521105Y-103442699D01*
X113470302Y-85305701D02*
X114407300Y-86242699D01*
X100507300Y-86242699D02*
X101444298Y-85305701D01*
X118500000Y-109500000D02*
X115350000Y-106350000D01*
X122007574Y-105992426D02*
X118500000Y-109500000D01*
X118392053Y-95039026D02*
X118392053Y-96019228D01*
X140503453Y-95403026D02*
X140503453Y-97496547D01*
X126949753Y-105992426D02*
X122007574Y-105992426D01*
X140503453Y-97496547D02*
X132007574Y-105992426D01*
X118392053Y-96019228D02*
X120449037Y-98076212D01*
X115350000Y-106350000D02*
X114098353Y-106350000D01*
X137830267Y-98076212D02*
X140503453Y-95403026D01*
X120449037Y-98076212D02*
X137830267Y-98076212D01*
X132007574Y-105992426D02*
X126949753Y-105992426D01*
X117045405Y-91130031D02*
X110000000Y-98175436D01*
D20*
X123845079Y-90654921D02*
X123845079Y-91130031D01*
X126500000Y-88000000D02*
X123845079Y-90654921D01*
D19*
X110000000Y-98175436D02*
X110000000Y-98500000D01*
X123845079Y-91130031D02*
X117045405Y-91130031D01*
X78094301Y-82805698D02*
X77157299Y-83742700D01*
X104699679Y-99654274D02*
X104699679Y-99795180D01*
X78094301Y-100005698D02*
X77157299Y-100942700D01*
X78094301Y-67479702D02*
X78094301Y-82805698D01*
X104325000Y-99279595D02*
X104699679Y-99654274D01*
X78094301Y-84679702D02*
X78094301Y-100005698D01*
X104325000Y-98961396D02*
X104325000Y-99279595D01*
X94000000Y-98000000D02*
X103363604Y-98000000D01*
X91057299Y-52642700D02*
X77157299Y-66542700D01*
X103363604Y-98000000D02*
X104325000Y-98961396D01*
X77157299Y-66542700D02*
X78094301Y-67479702D01*
X77157299Y-83742700D02*
X78094301Y-84679702D01*
X91057299Y-49342700D02*
X91057299Y-52642700D01*
D21*
X95500000Y-55000000D02*
X119500000Y-67000000D01*
X119500000Y-67000000D02*
X119500000Y-69000000D01*
X95500000Y-48000000D02*
X80000000Y-48000000D01*
X119500000Y-69000000D02*
X129000000Y-69000000D01*
X122500000Y-141000000D02*
X128500000Y-142000000D01*
X66000000Y-64500000D02*
X66000000Y-111000000D01*
X80000000Y-48000000D02*
X66000000Y-64500000D01*
X162500000Y-95000000D02*
X154500000Y-83500000D01*
X95500000Y-55000000D02*
X95500000Y-48000000D01*
X106500000Y-120500000D02*
X122500000Y-141000000D01*
X128500000Y-142000000D02*
X162000000Y-116500000D01*
X129000000Y-69000000D02*
X154500000Y-83500000D01*
X66000000Y-111000000D02*
X106500000Y-120500000D01*
X162000000Y-116500000D02*
X162500000Y-95000000D01*
M02*
