M48
; DRILL file {KiCad 8.0.4} date 2024-08-15T05:56:32-0700
; FORMAT={-:-/ absolute / metric / decimal}
; #@! TF.CreationDate,2024-08-15T05:56:32-07:00
; #@! TF.GenerationSoftware,Kicad,Pcbnew,8.0.4
; #@! TF.FileFunction,Plated,1,2,PTH
FMAT,2
METRIC
; #@! TA.AperFunction,Plated,PTH,ViaDrill
T1C0.300
; #@! TA.AperFunction,Plated,PTH,ComponentDrill
T2C0.500
; #@! TA.AperFunction,Plated,PTH,ComponentDrill
T3C0.600
; #@! TA.AperFunction,Plated,PTH,ComponentDrill
T4C2.000
%
G90
G05
T1
X94.0Y-97.0
X94.0Y-98.0
X94.0Y-99.0
X96.594Y-78.5
X102.0Y-104.83
X103.14Y-102.815
X103.223Y-100.345
X103.455Y-101.509
X104.468Y-100.613
X104.7Y-99.795
X105.0Y-99.0
X105.023Y-108.977
X105.987Y-92.403
X106.5Y-79.5
X107.0Y-93.5
X110.0Y-98.5
X111.5Y-108.0
X112.0Y-106.15
X112.0Y-109.5
X114.098Y-106.35
X115.0Y-107.0
X116.5Y-96.5
X117.325Y-91.805
X118.0Y-98.5
X119.471Y-82.029
X120.5Y-84.5
X120.5Y-95.5
X121.0Y-97.0
X121.0Y-119.0
X121.0Y-102.5
X121.2Y-82.007
X122.0Y-93.0
X122.5Y-117.5
X124.0Y-84.0
X124.0Y-87.0
X125.0Y-93.5
X125.0Y-95.0
X125.5Y-79.5
X126.0Y-96.0
X126.5Y-88.0
X127.0Y-97.0
X127.5Y-81.5
X127.5Y-93.5
X127.764Y-92.12
T4
X71.229Y-80.244
X93.063Y-114.216
X93.195Y-80.396
X102.0Y-60.5
X127.0Y-124.0
X132.618Y-102.887
X143.5Y-81.5
X148.468Y-122.442
T2
X67.457Y-69.043G85X67.957Y-69.043
G05
X67.457Y-86.243G85X67.957Y-86.243
G05
X67.457Y-103.443G85X67.957Y-103.443
G05
X72.457Y-69.043G85X72.957Y-69.043
G05
X72.457Y-86.243G85X72.957Y-86.243
G05
X72.457Y-103.443G85X72.957Y-103.443
G05
X77.157Y-66.793G85X77.157Y-66.293
G05
X77.157Y-71.793G85X77.157Y-71.293
G05
X77.157Y-83.993G85X77.157Y-83.493
G05
X77.157Y-88.993G85X77.157Y-88.493
G05
X77.157Y-101.193G85X77.157Y-100.693
G05
X77.157Y-106.193G85X77.157Y-105.693
G05
X81.357Y-51.843G85X81.857Y-51.843
G05
X81.357Y-69.043G85X81.857Y-69.043
G05
X81.357Y-86.243G85X81.857Y-86.243
G05
X81.357Y-103.443G85X81.857Y-103.443
G05
X86.357Y-51.843G85X86.857Y-51.843
G05
X86.357Y-69.043G85X86.857Y-69.043
G05
X86.357Y-86.243G85X86.857Y-86.243
G05
X86.357Y-103.443G85X86.857Y-103.443
G05
X91.057Y-49.593G85X91.057Y-49.093
G05
X91.057Y-54.593G85X91.057Y-54.093
G05
X91.057Y-66.793G85X91.057Y-66.293
G05
X91.057Y-71.793G85X91.057Y-71.293
G05
X91.057Y-83.993G85X91.057Y-83.493
G05
X91.057Y-88.993G85X91.057Y-88.493
G05
X91.057Y-101.193G85X91.057Y-100.693
G05
X91.057Y-106.193G85X91.057Y-105.693
G05
X95.257Y-69.043G85X95.757Y-69.043
G05
X95.257Y-86.243G85X95.757Y-86.243
G05
X95.257Y-103.443G85X95.757Y-103.443
G05
X100.257Y-69.043G85X100.757Y-69.043
G05
X100.257Y-86.243G85X100.757Y-86.243
G05
X100.257Y-103.443G85X100.757Y-103.443
G05
X104.957Y-66.793G85X104.957Y-66.293
G05
X104.957Y-71.793G85X104.957Y-71.293
G05
X104.957Y-83.993G85X104.957Y-83.493
G05
X104.957Y-88.993G85X104.957Y-88.493
G05
X109.157Y-86.243G85X109.657Y-86.243
G05
X110.164Y-112.445G85X110.472Y-112.839
G05
X112.528Y-67.294G85X112.978Y-67.514
G05
X113.242Y-116.385G85X113.55Y-116.779
G05
X113.969Y-121.781G85X114.363Y-121.474
G05
X114.157Y-86.243G85X114.657Y-86.243
G05
X115.16Y-90.902G85X115.468Y-91.296
G05
X117.022Y-69.486G85X117.472Y-69.706
G05
X117.909Y-118.703G85X118.303Y-118.395
G05
X118.238Y-94.842G85X118.546Y-95.236
G05
X118.721Y-123.398G85X119.029Y-123.792
G05
X118.965Y-100.239G85X119.359Y-99.931
G05
X121.8Y-127.338G85X122.108Y-127.732
G05
X122.526Y-132.735G85X122.92Y-132.427
G05
X122.905Y-97.16G85X123.299Y-96.853
G05
X123.718Y-101.855G85X124.025Y-102.249
G05
X126.466Y-129.657G85X126.86Y-129.349
G05
X126.796Y-105.795G85X127.104Y-106.189
G05
X127.279Y-134.351G85X127.587Y-134.745
G05
X127.522Y-111.192G85X127.916Y-110.884
G05
X130.357Y-138.291G85X130.665Y-138.685
G05
X131.462Y-108.114G85X131.856Y-107.806
G05
X131.528Y-75.794G85X131.978Y-76.014
G05
X132.275Y-112.809G85X132.583Y-113.203
G05
X132.518Y-89.649G85X132.912Y-89.342
G05
X135.353Y-116.749G85X135.661Y-117.143
G05
X136.022Y-77.986G85X136.472Y-78.206
G05
X136.08Y-122.145G85X136.474Y-121.838
G05
X136.459Y-86.571G85X136.853Y-86.263
G05
X137.271Y-91.266G85X137.579Y-91.66
G05
X140.02Y-119.067G85X140.414Y-118.759
G05
X140.35Y-95.206G85X140.657Y-95.6
G05
X140.833Y-123.762G85X141.141Y-124.156
G05
X141.076Y-100.603G85X141.47Y-100.295
G05
X143.911Y-127.702G85X144.219Y-128.096
G05
X145.016Y-97.524G85X145.41Y-97.217
G05
X145.829Y-102.219G85X146.137Y-102.613
G05
X148.907Y-106.159G85X149.215Y-106.553
G05
X149.634Y-111.556G85X150.028Y-111.248
G05
X151.63Y-91.013G85X152.024Y-90.706
G05
X153.574Y-108.478G85X153.968Y-108.17
G05
X154.387Y-113.173G85X154.694Y-113.567
G05
X155.57Y-87.935G85X155.964Y-87.627
G05
X156.383Y-92.63G85X156.691Y-93.024
G05
X157.465Y-117.113G85X157.773Y-117.507
G05
X159.461Y-96.57G85X159.769Y-96.964
G05
T3
X119.782Y-72.411G85X119.782Y-71.811
G05
X119.782Y-76.841G85X119.782Y-75.741
G05
X128.422Y-72.411G85X128.422Y-71.811
G05
X128.422Y-76.841G85X128.422Y-75.741
G05
M30
