G04 #@! TF.GenerationSoftware,KiCad,Pcbnew,8.0.4*
G04 #@! TF.CreationDate,2024-08-15T05:56:15-07:00*
G04 #@! TF.ProjectId,fixer-otg,66697865-722d-46f7-9467-2e6b69636164,rev?*
G04 #@! TF.SameCoordinates,Original*
G04 #@! TF.FileFunction,Copper,L1,Top*
G04 #@! TF.FilePolarity,Positive*
%FSLAX46Y46*%
G04 Gerber Fmt 4.6, Leading zero omitted, Abs format (unit mm)*
G04 Created by KiCad (PCBNEW 8.0.4) date 2024-08-15 05:56:15*
%MOMM*%
%LPD*%
G01*
G04 APERTURE LIST*
G04 Aperture macros list*
%AMRoundRect*
0 Rectangle with rounded corners*
0 $1 Rounding radius*
0 $2 $3 $4 $5 $6 $7 $8 $9 X,Y pos of 4 corners*
0 Add a 4 corners polygon primitive as box body*
4,1,4,$2,$3,$4,$5,$6,$7,$8,$9,$2,$3,0*
0 Add four circle primitives for the rounded corners*
1,1,$1+$1,$2,$3*
1,1,$1+$1,$4,$5*
1,1,$1+$1,$6,$7*
1,1,$1+$1,$8,$9*
0 Add four rect primitives between the rounded corners*
20,1,$1+$1,$2,$3,$4,$5,0*
20,1,$1+$1,$4,$5,$6,$7,0*
20,1,$1+$1,$6,$7,$8,$9,0*
20,1,$1+$1,$8,$9,$2,$3,0*%
%AMHorizOval*
0 Thick line with rounded ends*
0 $1 width*
0 $2 $3 position (X,Y) of the first rounded end (center of the circle)*
0 $4 $5 position (X,Y) of the second rounded end (center of the circle)*
0 Add line between two ends*
20,1,$1,$2,$3,$4,$5,0*
0 Add two circle primitives to create the rounded ends*
1,1,$1,$2,$3*
1,1,$1,$4,$5*%
G04 Aperture macros list end*
G04 #@! TA.AperFunction,ComponentPad*
%ADD10O,1.224000X1.524000*%
G04 #@! TD*
G04 #@! TA.AperFunction,SMDPad,CuDef*
%ADD11RoundRect,0.112500X0.112500X-0.187500X0.112500X0.187500X-0.112500X0.187500X-0.112500X-0.187500X0*%
G04 #@! TD*
G04 #@! TA.AperFunction,ComponentPad*
%ADD12HorizOval,1.224000X0.118202X0.092349X-0.118202X-0.092349X0*%
G04 #@! TD*
G04 #@! TA.AperFunction,SMDPad,CuDef*
%ADD13RoundRect,0.112500X-0.078490X-0.204088X0.217014X0.026785X0.078490X0.204088X-0.217014X-0.026785X0*%
G04 #@! TD*
G04 #@! TA.AperFunction,ComponentPad*
%ADD14O,1.524000X1.224000*%
G04 #@! TD*
G04 #@! TA.AperFunction,ComponentPad*
%ADD15C,2.500000*%
G04 #@! TD*
G04 #@! TA.AperFunction,SMDPad,CuDef*
%ADD16RoundRect,0.135000X-0.202436X-0.107097X0.040239X-0.225457X0.202436X0.107097X-0.040239X0.225457X0*%
G04 #@! TD*
G04 #@! TA.AperFunction,ComponentPad*
%ADD17HorizOval,1.224000X0.092349X-0.118202X-0.092349X0.118202X0*%
G04 #@! TD*
G04 #@! TA.AperFunction,ComponentPad*
%ADD18HorizOval,1.224000X0.134819X-0.065756X-0.134819X0.065756X0*%
G04 #@! TD*
G04 #@! TA.AperFunction,SMDPad,CuDef*
%ADD19RoundRect,0.140000X-0.200354X-0.091423X0.051308X-0.214167X0.200354X0.091423X-0.051308X0.214167X0*%
G04 #@! TD*
G04 #@! TA.AperFunction,SMDPad,CuDef*
%ADD20RoundRect,0.100000X-0.616818X0.189582X0.529144X-0.369341X0.616818X-0.189582X-0.529144X0.369341X0*%
G04 #@! TD*
G04 #@! TA.AperFunction,SMDPad,CuDef*
%ADD21R,0.600000X1.450000*%
G04 #@! TD*
G04 #@! TA.AperFunction,SMDPad,CuDef*
%ADD22R,0.300000X1.450000*%
G04 #@! TD*
G04 #@! TA.AperFunction,ComponentPad*
%ADD23O,1.000000X2.100000*%
G04 #@! TD*
G04 #@! TA.AperFunction,ComponentPad*
%ADD24O,1.000000X1.600000*%
G04 #@! TD*
G04 #@! TA.AperFunction,ViaPad*
%ADD25C,0.600000*%
G04 #@! TD*
G04 #@! TA.AperFunction,Conductor*
%ADD26C,0.250000*%
G04 #@! TD*
G04 #@! TA.AperFunction,Conductor*
%ADD27C,0.200000*%
G04 #@! TD*
G04 #@! TA.AperFunction,Profile*
%ADD28C,0.050000*%
G04 #@! TD*
G04 APERTURE END LIST*
D10*
X91057300Y-88742700D03*
X91057300Y-83742700D03*
D11*
X88557300Y-109602700D03*
X88557300Y-107502700D03*
D12*
X151826973Y-90859454D03*
X155767027Y-87781146D03*
X136277073Y-121991554D03*
X140217127Y-118913246D03*
D11*
X88557300Y-58002700D03*
X88557300Y-55902700D03*
D13*
X114738389Y-100368145D03*
X116393211Y-99075255D03*
X147403689Y-91142745D03*
X149058511Y-89849855D03*
X136849889Y-100732145D03*
X138504711Y-99439255D03*
D11*
X81607300Y-75202700D03*
X81607300Y-73102700D03*
D10*
X77157300Y-88742700D03*
X77157300Y-83742700D03*
D11*
X74657300Y-92402700D03*
X74657300Y-90302700D03*
X88557300Y-92402700D03*
X88557300Y-90302700D03*
D14*
X81607300Y-86242700D03*
X86607300Y-86242700D03*
D15*
X132618200Y-102886800D03*
D16*
X128541616Y-81600431D03*
X129458384Y-82047569D03*
D10*
X77157300Y-105942700D03*
X77157300Y-100942700D03*
D16*
X113541616Y-73276431D03*
X114458384Y-73723569D03*
D13*
X114021189Y-127387545D03*
X115676011Y-126094655D03*
D11*
X95507300Y-109602700D03*
X95507300Y-107502700D03*
D17*
X115313746Y-91098973D03*
X118392054Y-95039027D03*
D13*
X109742289Y-121910845D03*
X111397111Y-120617955D03*
D11*
X88557300Y-75202700D03*
X88557300Y-73102700D03*
X74657300Y-109602700D03*
X74657300Y-107502700D03*
D17*
X132429046Y-113005673D03*
X135507354Y-116945727D03*
D18*
X112753015Y-67404072D03*
X117246985Y-69595928D03*
D15*
X143500000Y-81500000D03*
X93195300Y-80395600D03*
D11*
X81607300Y-109602700D03*
X81607300Y-107502700D03*
X81607300Y-92402700D03*
X81607300Y-90302700D03*
D14*
X67707300Y-86242700D03*
X72707300Y-86242700D03*
D15*
X71229000Y-80243900D03*
D11*
X95507300Y-75202700D03*
X95507300Y-73102700D03*
D15*
X102000000Y-60500000D03*
D13*
X127574989Y-116798145D03*
X129229811Y-115505255D03*
D14*
X109407300Y-86242700D03*
X114407300Y-86242700D03*
D12*
X149830873Y-111402154D03*
X153770927Y-108323846D03*
D13*
X149686389Y-117162145D03*
X151341211Y-115869255D03*
D17*
X123871446Y-102052373D03*
X126949754Y-105992427D03*
D10*
X91057300Y-105942700D03*
X91057300Y-100942700D03*
D11*
X67707300Y-75202700D03*
X67707300Y-73102700D03*
D19*
X120602379Y-83160982D03*
X121465221Y-83581818D03*
D13*
X132570989Y-95255445D03*
X134225811Y-93962555D03*
X145407589Y-111685445D03*
X147062411Y-110392555D03*
D11*
X109407300Y-92402700D03*
X109407300Y-90302700D03*
D12*
X141273173Y-100448854D03*
X145213227Y-97370546D03*
D11*
X74657300Y-75202700D03*
X74657300Y-73102700D03*
D19*
X124568579Y-85789582D03*
X125431421Y-86210418D03*
D17*
X127433046Y-134548373D03*
X130511354Y-138488427D03*
D15*
X127000000Y-124000000D03*
D14*
X95507300Y-69042700D03*
X100507300Y-69042700D03*
D16*
X112041616Y-76276431D03*
X112958384Y-76723569D03*
D10*
X77157300Y-71542700D03*
X77157300Y-66542700D03*
D13*
X111999989Y-97000045D03*
X113654811Y-95707155D03*
D17*
X156536646Y-92826973D03*
X159614954Y-96767027D03*
D10*
X104957300Y-71542700D03*
X104957300Y-66542700D03*
D11*
X102457300Y-75202700D03*
X102457300Y-73102700D03*
D17*
X137425146Y-91462973D03*
X140503454Y-95403027D03*
D13*
X122578889Y-138340845D03*
X124233711Y-137047955D03*
X118299989Y-132864245D03*
X119954811Y-131571355D03*
D12*
X119161673Y-100084854D03*
X123101727Y-97006546D03*
D13*
X151682489Y-96619445D03*
X153337311Y-95326555D03*
D14*
X67707300Y-69042700D03*
X72707300Y-69042700D03*
D15*
X93062700Y-114216200D03*
D13*
X105463489Y-116434145D03*
X107118311Y-115141255D03*
D17*
X140986746Y-123959073D03*
X144065054Y-127899127D03*
D12*
X122723273Y-132580954D03*
X126663327Y-129502646D03*
D17*
X145982846Y-102416273D03*
X149061154Y-106356327D03*
D14*
X95507300Y-86242700D03*
X100507300Y-86242700D03*
D11*
X102457300Y-92402700D03*
X102457300Y-90302700D03*
D14*
X81607300Y-51842700D03*
X86607300Y-51842700D03*
D17*
X118875346Y-123595073D03*
X121953654Y-127535127D03*
D10*
X104957300Y-88742700D03*
X104957300Y-83742700D03*
D12*
X127719373Y-111038154D03*
X131659427Y-107959846D03*
D14*
X81607300Y-69042700D03*
X86607300Y-69042700D03*
D13*
X123296089Y-111321445D03*
X124950911Y-110028555D03*
D11*
X81607300Y-58002700D03*
X81607300Y-55902700D03*
D17*
X110317646Y-112641673D03*
X113395954Y-116581727D03*
X154540546Y-113369673D03*
X157618854Y-117309727D03*
D13*
X131853789Y-122274845D03*
X133508611Y-120981955D03*
D20*
X106639338Y-100076190D03*
X106354396Y-100660406D03*
X106069455Y-101244622D03*
X105784514Y-101828838D03*
X105499574Y-102413055D03*
X105214631Y-102997271D03*
X104929690Y-103581487D03*
X104644749Y-104165703D03*
X104359808Y-104749919D03*
X104074866Y-105334135D03*
X109220462Y-107843810D03*
X109505404Y-107259594D03*
X109790345Y-106675378D03*
X110075286Y-106091162D03*
X110360226Y-105506945D03*
X110645169Y-104922729D03*
X110930110Y-104338513D03*
X111215051Y-103754297D03*
X111499992Y-103170081D03*
X111784934Y-102585865D03*
D13*
X128292189Y-89778745D03*
X129947011Y-88485855D03*
X141128689Y-106208745D03*
X142783511Y-104915855D03*
D10*
X91057300Y-71542700D03*
X91057300Y-66542700D03*
D14*
X95507300Y-103442700D03*
X100507300Y-103442700D03*
D15*
X148467800Y-122442500D03*
D14*
X67707300Y-103442700D03*
X72707300Y-103442700D03*
D18*
X131753015Y-75904072D03*
X136246985Y-78095928D03*
D10*
X91057300Y-54342700D03*
X91057300Y-49342700D03*
D13*
X119017289Y-105844845D03*
X120672111Y-104551955D03*
D11*
X70707300Y-109602700D03*
X70707300Y-107502700D03*
D12*
X132715473Y-89495454D03*
X136655527Y-86417146D03*
D21*
X127352400Y-77206000D03*
X126552400Y-77206000D03*
D22*
X125352400Y-77206000D03*
X124352400Y-77206000D03*
X123852400Y-77206000D03*
X122852400Y-77206000D03*
D21*
X121652400Y-77206000D03*
X120852400Y-77206000D03*
X120852400Y-77206000D03*
X121652400Y-77206000D03*
D22*
X122352400Y-77206000D03*
X123352400Y-77206000D03*
X124852400Y-77206000D03*
X125852400Y-77206000D03*
D21*
X126552400Y-77206000D03*
X127352400Y-77206000D03*
D23*
X128422400Y-76291000D03*
D24*
X128422400Y-72111000D03*
D23*
X119782400Y-76291000D03*
D24*
X119782400Y-72111000D03*
D12*
X114165573Y-121627554D03*
X118105627Y-118549246D03*
D11*
X67707300Y-92402700D03*
X67707300Y-90302700D03*
D13*
X136132689Y-127751545D03*
X137787511Y-126458655D03*
D14*
X81607300Y-103442700D03*
X86607300Y-103442700D03*
D11*
X95507300Y-92402700D03*
X95507300Y-90302700D03*
D25*
X124000000Y-87000000D03*
X120500000Y-84500000D03*
X125000000Y-95000000D03*
X105022702Y-108977298D03*
X127000000Y-97000000D03*
X126000000Y-96000000D03*
X125000000Y-93500000D03*
X127500000Y-93500000D03*
X122000000Y-93000000D03*
X121200000Y-82007346D03*
X124000000Y-84000000D03*
X119470698Y-82029302D03*
X107000000Y-93500000D03*
X105987000Y-92402700D03*
X103139799Y-102814797D03*
X96594300Y-78500000D03*
X117325000Y-91805031D03*
X106500000Y-79500000D03*
X127764239Y-92120497D03*
X112000000Y-109500000D03*
X102000000Y-104829699D03*
X121000000Y-97000000D03*
X118000004Y-98500000D03*
X120500000Y-95500000D03*
X112000000Y-106150000D03*
X121000002Y-102500000D03*
X116500000Y-96500000D03*
X127500000Y-81500000D03*
X125500000Y-79500000D03*
X94000000Y-97000000D03*
X105000000Y-99000000D03*
X104467988Y-100612996D03*
X94000000Y-99000000D03*
X111500000Y-108000000D03*
X103223348Y-100345421D03*
X121000000Y-119000000D03*
X115000000Y-107000000D03*
X122500000Y-117500000D03*
X103454803Y-101509001D03*
X114098353Y-106350000D03*
X126500000Y-88000000D03*
X110000000Y-98500000D03*
X94000000Y-98000000D03*
X104699679Y-99795180D03*
D26*
X112630193Y-65500000D02*
X115735551Y-68605358D01*
D27*
X119782401Y-76291000D02*
X119937401Y-76291000D01*
X121465221Y-83106290D02*
X121465221Y-83581818D01*
D26*
X125431421Y-86210418D02*
X125431421Y-93068579D01*
D27*
X131369482Y-128369482D02*
X140029256Y-128369482D01*
X111028158Y-103567404D02*
X109897424Y-103567404D01*
D26*
X120547039Y-84500000D02*
X121465221Y-83581818D01*
X128422400Y-76290999D02*
X128422401Y-76291000D01*
X132235316Y-72110999D02*
X128422400Y-72110999D01*
X93195300Y-80395600D02*
X71380700Y-80395600D01*
X125431421Y-86210418D02*
X124641839Y-87000000D01*
X71380700Y-80395600D02*
X71229000Y-80243900D01*
X119782400Y-76290999D02*
X119782401Y-76291000D01*
D27*
X120550000Y-77508399D02*
X120550000Y-82276585D01*
D26*
X116605358Y-68605358D02*
X116692854Y-68517862D01*
X119478892Y-75822291D02*
X119478892Y-75875629D01*
D27*
X120777754Y-82504339D02*
X120863270Y-82504339D01*
X105022702Y-108442126D02*
X105022702Y-108977298D01*
X120852400Y-77205999D02*
X120550000Y-77508399D01*
D26*
X117669604Y-68517862D02*
X116692854Y-68517862D01*
D27*
X145956238Y-122442500D02*
X148467800Y-122442500D01*
D26*
X119915820Y-71665189D02*
X119915820Y-71915820D01*
X119782400Y-72111000D02*
X119782400Y-70630658D01*
X116355358Y-68855358D02*
X116605358Y-68605358D01*
X102000000Y-60500000D02*
X107000000Y-65500000D01*
X128071561Y-76725417D02*
X127709920Y-76725417D01*
X143414594Y-81500000D02*
X143500000Y-81500000D01*
X129458384Y-82047569D02*
X129458384Y-79311984D01*
D27*
X130714332Y-100982932D02*
X120143227Y-100982932D01*
D26*
X135473611Y-73559017D02*
X143414594Y-81500000D01*
X125431421Y-86074532D02*
X125431421Y-86210418D01*
X116692854Y-68517862D02*
X116355358Y-68855358D01*
D27*
X111215051Y-103754297D02*
X111028158Y-103567404D01*
D26*
X125431421Y-93068579D02*
X125000000Y-93500000D01*
D27*
X120863270Y-82504339D02*
X121465221Y-83106290D01*
D26*
X107000000Y-65500000D02*
X112630193Y-65500000D01*
X114458384Y-70752332D02*
X116355358Y-68855358D01*
X119782400Y-72111000D02*
X119782400Y-76290999D01*
D27*
X109897424Y-103567404D02*
X105022702Y-108442126D01*
D26*
X127000000Y-97000000D02*
X127500000Y-97500000D01*
D27*
X140029256Y-128369482D02*
X145956238Y-122442500D01*
X119937401Y-76291000D02*
X120852400Y-77205999D01*
D26*
X129458384Y-82047569D02*
X125431421Y-86074532D01*
X127500000Y-97500000D02*
X127500000Y-97768600D01*
D27*
X127000000Y-124000000D02*
X131369482Y-128369482D01*
X120143227Y-100982932D02*
X117184969Y-103941190D01*
D26*
X120500000Y-84500000D02*
X120547039Y-84500000D01*
X125000000Y-95000000D02*
X126000000Y-96000000D01*
D27*
X117184969Y-103941190D02*
X111401944Y-103941190D01*
D26*
X128508490Y-76288488D02*
X128071561Y-76725417D01*
X115735551Y-68605358D02*
X116605358Y-68605358D01*
D27*
X120550000Y-82276585D02*
X120777754Y-82504339D01*
X111401944Y-103941190D02*
X111215051Y-103754297D01*
D26*
X129458384Y-79311984D02*
X127352400Y-77206000D01*
X124641839Y-87000000D02*
X124000000Y-87000000D01*
D27*
X148467800Y-118736400D02*
X132618200Y-102886800D01*
X148467800Y-122442500D02*
X148467800Y-118736400D01*
D26*
X135473611Y-73559017D02*
X132235316Y-72110999D01*
X127500000Y-97768600D02*
X132618200Y-102886800D01*
X128422400Y-72110999D02*
X128422400Y-76290999D01*
D27*
X132618200Y-102886800D02*
X130714332Y-100982932D01*
D26*
X119782400Y-70630658D02*
X117669604Y-68517862D01*
X114458384Y-73723569D02*
X114458384Y-70752332D01*
D27*
X117000000Y-103500000D02*
X119601195Y-100898805D01*
X111499992Y-103170080D02*
X111670080Y-103170080D01*
X120042318Y-100554164D02*
X122365075Y-100554164D01*
X124568579Y-85789582D02*
X124568579Y-84568579D01*
D26*
X126552401Y-77206000D02*
X126552401Y-81447599D01*
D27*
X124568579Y-84568579D02*
X124000000Y-84000000D01*
X121652398Y-80362678D02*
X121200000Y-80815076D01*
X127500000Y-95419239D02*
X127500000Y-93500000D01*
X122000000Y-93000000D02*
X122000000Y-88080761D01*
X122365075Y-100554164D02*
X127500000Y-95419239D01*
X121200000Y-80815076D02*
X121200000Y-82007346D01*
D26*
X126552401Y-81447599D02*
X124000000Y-84000000D01*
D27*
X124000000Y-86080761D02*
X124000000Y-85000000D01*
X112000000Y-103500000D02*
X117000000Y-103500000D01*
X119601195Y-100898805D02*
X120042318Y-100554164D01*
X111670080Y-103170080D02*
X112000000Y-103500000D01*
X122000000Y-88080761D02*
X124000000Y-86080761D01*
X121652398Y-77206001D02*
X121652398Y-80362678D01*
D26*
X124000000Y-85000000D02*
X124000000Y-84000000D01*
X117246985Y-79805588D02*
X119470698Y-82029302D01*
X119470698Y-82029302D02*
X120602379Y-83160982D01*
D27*
X111784934Y-102585865D02*
X111350552Y-102151483D01*
D26*
X117246985Y-69595928D02*
X117246985Y-79805588D01*
D27*
X111350552Y-102151483D02*
X111350552Y-97850552D01*
X111350552Y-97850552D02*
X107000000Y-93500000D01*
D26*
X114738388Y-99807017D02*
X114738388Y-100368145D01*
X118220405Y-96325000D02*
X114738388Y-99807017D01*
X141608425Y-85347482D02*
X131652518Y-85347482D01*
X106680000Y-88180000D02*
X106680000Y-88495118D01*
X111999988Y-95499988D02*
X111999988Y-97000045D01*
X128292188Y-88707812D02*
X128292188Y-89778745D01*
X81607300Y-58002701D02*
X88557300Y-58002701D01*
X147403688Y-92340645D02*
X151682488Y-96619445D01*
X103245118Y-91930000D02*
X102930000Y-91930000D01*
X125961396Y-94175000D02*
X124588604Y-94175000D01*
X102457300Y-75202701D02*
X102457300Y-83957300D01*
D27*
X114738389Y-100368145D02*
X111999989Y-97629745D01*
D26*
X109407300Y-92402701D02*
X109407300Y-92907300D01*
X111999988Y-97000045D02*
X111999988Y-97629745D01*
X96594300Y-69339701D02*
X102457300Y-75202701D01*
X104001378Y-102814797D02*
X103139799Y-102814797D01*
X104929691Y-103581486D02*
X104768067Y-103581486D01*
X88557300Y-58002701D02*
X96594300Y-66039701D01*
X102930000Y-91930000D02*
X102457300Y-92402701D01*
X126950000Y-93186396D02*
X125961396Y-94175000D01*
X109407300Y-92907300D02*
X111999988Y-95499988D01*
X102457300Y-83957300D02*
X106680000Y-88180000D01*
X103402701Y-92402701D02*
X109407300Y-92402701D01*
D27*
X111999989Y-97629745D02*
X111999988Y-97629745D01*
D26*
X128292188Y-89778745D02*
X126950000Y-91120933D01*
X104768067Y-103581486D02*
X104001378Y-102814797D01*
X96594300Y-66039701D02*
X96594300Y-69339701D01*
X126950000Y-91120933D02*
X126950000Y-93186396D01*
X147403688Y-91142745D02*
X147403688Y-92340645D01*
X122438604Y-96325000D02*
X118220405Y-96325000D01*
X124588604Y-94175000D02*
X122438604Y-96325000D01*
X147403688Y-91142745D02*
X142656686Y-86395743D01*
X106680000Y-88495118D02*
X103245118Y-91930000D01*
X131652518Y-85347482D02*
X128292188Y-88707812D01*
X102930000Y-91930000D02*
X103402701Y-92402701D01*
X142656686Y-86395743D02*
X141608425Y-85347482D01*
X130899187Y-95255445D02*
X127764239Y-92120497D01*
X141128688Y-106208745D02*
X141128688Y-107406545D01*
X114134972Y-79500000D02*
X106500000Y-79500000D01*
X132570988Y-96453245D02*
X136849888Y-100732145D01*
X145407588Y-111685445D02*
X145407588Y-112883345D01*
X95507300Y-75202701D02*
X96594300Y-76289701D01*
X88557300Y-75202701D02*
X95507300Y-75202701D01*
X141128688Y-107406545D02*
X145407588Y-111685445D01*
X81607300Y-75202701D02*
X88557300Y-75202701D01*
X117325000Y-91805031D02*
X117325000Y-82690028D01*
X96594300Y-76289701D02*
X96594300Y-78500000D01*
X101921294Y-103953810D02*
X104432856Y-103953810D01*
X145407588Y-112883345D02*
X149686388Y-117162145D01*
X101495405Y-104379699D02*
X101921294Y-103953810D01*
X67707300Y-75202701D02*
X74657300Y-75202701D01*
X136849888Y-101929945D02*
X141128688Y-106208745D01*
X136849888Y-100732145D02*
X136849888Y-101929945D01*
X104644749Y-104165703D02*
X104644749Y-104144749D01*
X96594300Y-101004817D02*
X99969182Y-104379699D01*
X104432856Y-103953810D02*
X104644749Y-104165703D01*
X104644749Y-104144749D02*
X104500000Y-104000000D01*
X117325000Y-82690028D02*
X114134972Y-79500000D01*
X132570988Y-95255445D02*
X132570988Y-96453245D01*
X99969182Y-104379699D02*
X101495405Y-104379699D01*
X132570988Y-95255445D02*
X130899187Y-95255445D01*
X96594300Y-78500000D02*
X96594300Y-101004817D01*
X74657300Y-75202701D02*
X81607300Y-75202701D01*
X115362133Y-109500000D02*
X112000000Y-109500000D01*
X67707300Y-92402701D02*
X74657300Y-92402701D01*
X103077273Y-104829699D02*
X103368947Y-104538025D01*
X88557300Y-92402701D02*
X95507300Y-92402701D01*
X127574988Y-115600345D02*
X123296088Y-111321445D01*
X123296088Y-110123645D02*
X119017288Y-105844845D01*
X95507300Y-100554213D02*
X99782786Y-104829699D01*
X136132688Y-127751545D02*
X136132688Y-126553745D01*
X74657300Y-92402701D02*
X81607300Y-92402701D01*
X103368947Y-104538025D02*
X104147913Y-104538025D01*
X81607300Y-92402701D02*
X88557300Y-92402701D01*
X127574988Y-116798145D02*
X127574988Y-115600345D01*
X131853788Y-121853788D02*
X127574988Y-117574988D01*
X136132688Y-126553745D02*
X131853788Y-122274845D01*
X104147913Y-104538025D02*
X104359808Y-104749920D01*
X95507300Y-92402701D02*
X95507300Y-100554213D01*
X127574988Y-117574988D02*
X127574988Y-116798145D01*
X131853788Y-122274845D02*
X131853788Y-121853788D01*
X119017288Y-105844845D02*
X115362133Y-109500000D01*
X123296088Y-111321445D02*
X123296088Y-110123645D01*
X99782786Y-104829699D02*
X103077273Y-104829699D01*
X74657300Y-109602701D02*
X81607300Y-109602701D01*
X114021189Y-126521189D02*
X114021189Y-127387545D01*
X95507300Y-109602701D02*
X102338744Y-116434145D01*
X114021189Y-128585445D02*
X122578888Y-137143144D01*
X88557300Y-109602701D02*
X95507300Y-109602701D01*
X105463488Y-116963488D02*
X109742288Y-121242288D01*
X105463488Y-116434145D02*
X105463488Y-116963488D01*
X99806300Y-109602701D02*
X104074866Y-105334135D01*
X122578888Y-137143144D02*
X122578888Y-138340845D01*
X109742288Y-121242288D02*
X109742288Y-122242288D01*
X70707300Y-109602701D02*
X74657300Y-109602701D01*
X81607300Y-109602701D02*
X88557300Y-109602701D01*
X109742288Y-122242288D02*
X114021189Y-126521189D01*
X102338744Y-116434145D02*
X105463488Y-116434145D01*
X95507300Y-109602701D02*
X99806300Y-109602701D01*
X114021189Y-127387545D02*
X114021189Y-128585445D01*
D27*
X124852400Y-78181000D02*
X124033400Y-79000000D01*
X124852400Y-77206001D02*
X124852400Y-78181000D01*
X111312370Y-105878056D02*
X111334314Y-105900000D01*
X111750000Y-105900000D02*
X112000000Y-106150000D01*
X111334314Y-105900000D02*
X111750000Y-105900000D01*
X110857603Y-105878056D02*
X111312370Y-105878056D01*
X123852398Y-77206000D02*
X123852398Y-79000000D01*
X123852398Y-83217245D02*
X120500000Y-86569643D01*
X110486493Y-105506946D02*
X110857603Y-105878056D01*
X123852398Y-82080758D02*
X123852398Y-83217245D01*
X110360227Y-105506946D02*
X110486493Y-105506946D01*
X123852398Y-79000000D02*
X123852398Y-82080758D01*
X120500000Y-86569643D02*
X120500000Y-95500000D01*
X119500004Y-97000000D02*
X118000004Y-98500000D01*
X121000000Y-97000000D02*
X119500004Y-97000000D01*
X124033400Y-79000000D02*
X123852398Y-79000000D01*
X120938271Y-85000000D02*
X122352400Y-83585871D01*
X120919239Y-85000000D02*
X120938271Y-85000000D01*
X119850000Y-83350000D02*
X119850000Y-84769239D01*
X122352400Y-83585871D02*
X122352400Y-77206001D01*
X113743536Y-73478351D02*
X113743536Y-77243536D01*
X120230761Y-85150000D02*
X120769239Y-85150000D01*
X119850000Y-84769239D02*
X120230761Y-85150000D01*
X113743536Y-77243536D02*
X119850000Y-83350000D01*
X113541616Y-73276431D02*
X113743536Y-73478351D01*
X120769239Y-85150000D02*
X120919239Y-85000000D01*
X124352400Y-76352400D02*
X124352400Y-77206000D01*
D26*
X115075002Y-108425000D02*
X121000002Y-102500000D01*
D27*
X123352401Y-83151556D02*
X118503957Y-88000000D01*
D26*
X110309124Y-106325000D02*
X111223960Y-106325000D01*
X118000000Y-88000000D02*
X118000000Y-93500000D01*
D27*
X123583398Y-76000000D02*
X124000000Y-76000000D01*
X123352401Y-82500000D02*
X123352401Y-83151556D01*
X118503957Y-88000000D02*
X118000000Y-88000000D01*
D26*
X112041616Y-76276431D02*
X112041616Y-76770248D01*
X116500000Y-95000000D02*
X116500000Y-96500000D01*
X111223960Y-106325000D02*
X113323960Y-108425000D01*
D27*
X123352401Y-76230997D02*
X123583398Y-76000000D01*
D26*
X118000000Y-82728632D02*
X118000000Y-88000000D01*
X118000000Y-93500000D02*
X116500000Y-95000000D01*
D27*
X123352401Y-77206000D02*
X123352401Y-82500000D01*
D26*
X112041616Y-76770248D02*
X118000000Y-82728632D01*
D27*
X123352401Y-77206000D02*
X123352401Y-76230997D01*
D26*
X110075286Y-106091162D02*
X110309124Y-106325000D01*
X113323960Y-108425000D02*
X115075002Y-108425000D01*
D27*
X124000000Y-76000000D02*
X124352400Y-76352400D01*
X125352400Y-79352400D02*
X125500000Y-79500000D01*
D26*
X127600431Y-81600431D02*
X127500000Y-81500000D01*
X128541616Y-81600431D02*
X127600431Y-81600431D01*
D27*
X125352400Y-77205998D02*
X125352400Y-79352400D01*
D26*
X112753015Y-76518200D02*
X112753015Y-67404072D01*
X112958384Y-76723569D02*
X112753015Y-76518200D01*
X105000000Y-99000000D02*
X105864296Y-99864296D01*
X79149999Y-97000000D02*
X94000000Y-97000000D01*
X105864296Y-99864296D02*
X106589065Y-99864296D01*
X106589065Y-99864296D02*
X106720149Y-99995380D01*
X72707300Y-103442699D02*
X79149999Y-97000000D01*
X144607675Y-127356504D02*
X144065053Y-127899126D01*
X156190273Y-117309727D02*
X148905247Y-124594753D01*
X130511353Y-134943360D02*
X123023318Y-127455325D01*
X119875000Y-119465991D02*
X119875000Y-118720867D01*
X119875000Y-118720867D02*
X111779133Y-110625000D01*
X148405247Y-124594753D02*
X145643496Y-127356504D01*
X157618854Y-117309727D02*
X156190273Y-117309727D01*
X109220462Y-108311453D02*
X109220462Y-107843809D01*
X158056312Y-98325669D02*
X158056312Y-116872269D01*
X158056312Y-116872269D02*
X157618854Y-117309727D01*
X130511353Y-138488426D02*
X130511353Y-134943360D01*
X144065053Y-127899126D02*
X141100653Y-127899126D01*
X111534009Y-110625000D02*
X109220462Y-108311453D01*
X141100653Y-127899126D02*
X130511353Y-138488426D01*
X123023318Y-127455325D02*
X123023318Y-122614309D01*
X159614954Y-96767027D02*
X158056312Y-98325669D01*
X123023318Y-122614309D02*
X119875000Y-119465991D01*
X148905247Y-124594753D02*
X148405247Y-124594753D01*
X111779133Y-110625000D02*
X111534009Y-110625000D01*
X145643496Y-127356504D02*
X144607675Y-127356504D01*
X126663326Y-129502647D02*
X125425000Y-128264321D01*
X111325000Y-108917568D02*
X109586215Y-107178783D01*
X111325000Y-109779595D02*
X111325000Y-108917568D01*
X125425000Y-128264321D02*
X125425000Y-124379595D01*
X120325000Y-118461396D02*
X112038604Y-110175000D01*
X125425000Y-124379595D02*
X120325000Y-119279595D01*
X153770926Y-103729074D02*
X153770926Y-108323847D01*
X111720405Y-110175000D02*
X111325000Y-109779595D01*
X120325000Y-119279595D02*
X120325000Y-118461396D01*
X155767026Y-87781147D02*
X157606312Y-89620433D01*
X157606312Y-99893688D02*
X153770926Y-103729074D01*
X112038604Y-110175000D02*
X111720405Y-110175000D01*
X157606312Y-89620433D02*
X157606312Y-99893688D01*
X105166615Y-100898512D02*
X104881099Y-100612996D01*
X91049999Y-99000000D02*
X94000000Y-99000000D01*
X104881099Y-100612996D02*
X104467988Y-100612996D01*
X105561723Y-100898512D02*
X105166615Y-100898512D01*
X105988644Y-101325433D02*
X105561723Y-100898512D01*
X86607300Y-103442699D02*
X91049999Y-99000000D01*
X110387272Y-107023668D02*
X110387272Y-106887272D01*
X136655526Y-86417147D02*
X149061153Y-98822774D01*
X111363604Y-108000000D02*
X110387272Y-107023668D01*
X111500000Y-108000000D02*
X111363604Y-108000000D01*
X149061153Y-98822774D02*
X149061153Y-106356326D01*
X103245818Y-100345421D02*
X103223348Y-100345421D01*
X104188393Y-101287996D02*
X103245818Y-100345421D01*
X104980219Y-101348512D02*
X104919703Y-101287996D01*
X105784514Y-101828838D02*
X105622892Y-101828838D01*
X105142566Y-101348512D02*
X104980219Y-101348512D01*
X105622892Y-101828838D02*
X105142566Y-101348512D01*
X104919703Y-101287996D02*
X104188393Y-101287996D01*
D27*
X111500000Y-105500000D02*
X111478056Y-105478056D01*
X111326760Y-105478056D02*
X110771433Y-104922729D01*
X111478056Y-105478056D02*
X111326760Y-105478056D01*
X110771433Y-104922729D02*
X110645169Y-104922729D01*
X111500000Y-105500000D02*
X112198529Y-105500000D01*
X112198529Y-105500000D02*
X113698529Y-107000000D01*
X113698529Y-107000000D02*
X115000000Y-107000000D01*
D26*
X122500000Y-117500000D02*
X121000000Y-119000000D01*
X103773002Y-101509001D02*
X103454803Y-101509001D01*
X104662893Y-101737996D02*
X104001997Y-101737996D01*
D27*
X100507300Y-69042699D02*
X105542699Y-69042699D01*
D26*
X105337951Y-102413054D02*
X104662893Y-101737996D01*
D27*
X104500000Y-81000000D02*
X109164601Y-81000000D01*
X105542699Y-69042699D02*
X107500000Y-71000000D01*
D26*
X104001997Y-101737996D02*
X103773002Y-101509001D01*
D27*
X107500000Y-71500000D02*
X104500000Y-74500000D01*
D26*
X105499573Y-102413054D02*
X105337951Y-102413054D01*
D27*
X109164601Y-81000000D02*
X114407300Y-86242699D01*
D26*
X100507300Y-103442699D02*
X100507300Y-86242699D01*
D27*
X104500000Y-74500000D02*
X104500000Y-81000000D01*
X107500000Y-71000000D02*
X107500000Y-71500000D01*
D26*
X110500000Y-104000000D02*
X110065869Y-104000000D01*
X108176875Y-105888994D02*
X108176875Y-108676875D01*
X113151447Y-104550407D02*
X114098353Y-105497313D01*
X114098353Y-105497313D02*
X114098353Y-106350000D01*
X108176875Y-108676875D02*
X113395953Y-113895953D01*
X110838514Y-104338514D02*
X110500000Y-104000000D01*
X110065869Y-104000000D02*
X108176875Y-105888994D01*
X113395953Y-113895953D02*
X113395953Y-116581726D01*
X111550407Y-104550407D02*
X113151447Y-104550407D01*
X110930109Y-104338514D02*
X110838514Y-104338514D01*
X102325000Y-100220405D02*
X102325000Y-101333793D01*
X109825000Y-98325000D02*
X104220405Y-98325000D01*
X102325000Y-101333793D02*
X103179203Y-102187996D01*
X103179203Y-102187996D02*
X104243736Y-102187996D01*
D27*
X131753015Y-82746985D02*
X126500000Y-88000000D01*
X131753015Y-75904072D02*
X131753015Y-82746985D01*
D26*
X104220405Y-98325000D02*
X102325000Y-100220405D01*
X104243736Y-102187996D02*
X105133821Y-103078081D01*
X110000000Y-98500000D02*
X109825000Y-98325000D01*
X77157299Y-100942700D02*
X80099999Y-98000000D01*
D27*
X106354396Y-100660406D02*
X106160406Y-100660406D01*
D26*
X80099999Y-98000000D02*
X94000000Y-98000000D01*
X106354396Y-100660406D02*
X106142502Y-100448512D01*
D27*
X106160406Y-100660406D02*
X106000000Y-100500000D01*
D26*
X106142502Y-100448512D02*
X105353011Y-100448512D01*
X105353011Y-100448512D02*
X104699679Y-99795180D01*
X67707300Y-69042701D02*
X67707300Y-73102699D01*
X67707300Y-86242701D02*
X67707300Y-90302699D01*
X70707300Y-106442701D02*
X67707300Y-103442701D01*
X70707300Y-107502699D02*
X70707300Y-106442701D01*
X91057301Y-54342700D02*
X90117299Y-54342700D01*
X90117299Y-54342700D02*
X88557300Y-55902699D01*
X81607300Y-51842701D02*
X81607300Y-55902699D01*
X77157301Y-71542700D02*
X76217299Y-71542700D01*
X76217299Y-71542700D02*
X74657300Y-73102699D01*
X76217299Y-88742700D02*
X74657300Y-90302699D01*
X77157301Y-88742700D02*
X76217299Y-88742700D01*
X74657300Y-107502699D02*
X75597302Y-107502699D01*
X75597302Y-107502699D02*
X77157301Y-105942700D01*
X104957301Y-71542700D02*
X104017299Y-71542700D01*
X104017299Y-71542700D02*
X102457300Y-73102699D01*
X81607300Y-69042701D02*
X81607300Y-73102699D01*
X81607300Y-86242701D02*
X81607300Y-90302699D01*
X81607300Y-107502699D02*
X81607300Y-103442701D01*
D27*
X104957300Y-88742700D02*
X104017300Y-88742700D01*
X104017300Y-88742700D02*
X102457300Y-90302700D01*
D26*
X91057301Y-71542700D02*
X90117299Y-71542700D01*
X90117299Y-71542700D02*
X88557300Y-73102699D01*
X91057301Y-88742700D02*
X90117299Y-88742700D01*
X90117299Y-88742700D02*
X88557300Y-90302699D01*
X88557300Y-107502699D02*
X89497302Y-107502699D01*
X89497302Y-107502699D02*
X91057301Y-105942700D01*
X109407300Y-86242701D02*
X109407300Y-90302699D01*
X95507300Y-69042701D02*
X95507300Y-73102699D01*
X95507300Y-86242701D02*
X95507300Y-90302699D01*
X95507300Y-107502699D02*
X95507300Y-103442701D01*
X115313747Y-91098974D02*
X115313747Y-94048220D01*
X115313747Y-94048220D02*
X113654812Y-95707155D01*
X134925566Y-93962555D02*
X134225812Y-93962555D01*
X137425147Y-91462974D02*
X134925566Y-93962555D01*
X123871447Y-102052374D02*
X121371866Y-104551955D01*
X121371866Y-104551955D02*
X120672112Y-104551955D01*
X110317647Y-112641674D02*
X107818066Y-115141255D01*
X107818066Y-115141255D02*
X107118312Y-115141255D01*
X117402810Y-100084853D02*
X116393212Y-99075255D01*
X119161674Y-100084853D02*
X117402810Y-100084853D01*
X141273174Y-100448853D02*
X139514310Y-100448853D01*
X139514310Y-100448853D02*
X138504712Y-99439255D01*
X127719374Y-111038153D02*
X125960510Y-111038153D01*
X125960510Y-111038153D02*
X124950912Y-110028555D01*
X114165574Y-121627553D02*
X112406710Y-121627553D01*
X112406710Y-121627553D02*
X111397112Y-120617955D01*
X132715474Y-89495453D02*
X130956610Y-89495453D01*
X130956610Y-89495453D02*
X129947012Y-88485855D01*
X145982847Y-102416274D02*
X143483266Y-104915855D01*
X143483266Y-104915855D02*
X142783512Y-104915855D01*
X129929466Y-115505255D02*
X129229812Y-115505255D01*
X132429047Y-113005674D02*
X129929466Y-115505255D01*
X116375766Y-126094655D02*
X118875347Y-123595074D01*
X115676012Y-126094655D02*
X116375766Y-126094655D01*
X151826974Y-90859453D02*
X150068110Y-90859453D01*
X150068110Y-90859453D02*
X149058512Y-89849855D01*
X149830874Y-111402153D02*
X148072010Y-111402153D01*
X148072010Y-111402153D02*
X147062412Y-110392555D01*
X136277074Y-121991553D02*
X134518210Y-121991553D01*
X134518210Y-121991553D02*
X133508612Y-120981955D01*
X119954812Y-131571355D02*
X121713676Y-131571355D01*
X121713676Y-131571355D02*
X122723274Y-132580953D01*
X154037066Y-95326555D02*
X153337312Y-95326555D01*
X156536647Y-92826974D02*
X154037066Y-95326555D01*
X152040966Y-115869255D02*
X151341212Y-115869255D01*
X154540547Y-113369674D02*
X152040966Y-115869255D01*
X140986747Y-123959074D02*
X138487166Y-126458655D01*
X138487166Y-126458655D02*
X137787512Y-126458655D01*
X124233712Y-137047955D02*
X124933466Y-137047955D01*
X124933466Y-137047955D02*
X127433047Y-134548374D01*
D28*
X95500000Y-55000000D02*
X119500000Y-67000000D01*
X119500000Y-67000000D02*
X119500000Y-69000000D01*
X95500000Y-48000000D02*
X80000000Y-48000000D01*
X119500000Y-69000000D02*
X129000000Y-69000000D01*
X122500000Y-141000000D02*
X128500000Y-142000000D01*
X66000000Y-64500000D02*
X66000000Y-111000000D01*
X80000000Y-48000000D02*
X66000000Y-64500000D01*
X162500000Y-95000000D02*
X154500000Y-83500000D01*
X95500000Y-55000000D02*
X95500000Y-48000000D01*
X106500000Y-120500000D02*
X122500000Y-141000000D01*
X128500000Y-142000000D02*
X162000000Y-116500000D01*
X129000000Y-69000000D02*
X154500000Y-83500000D01*
X66000000Y-111000000D02*
X106500000Y-120500000D01*
X162000000Y-116500000D02*
X162500000Y-95000000D01*
M02*
