G04 #@! TF.GenerationSoftware,KiCad,Pcbnew,8.0.4*
G04 #@! TF.CreationDate,2024-08-15T05:56:16-07:00*
G04 #@! TF.ProjectId,fixer-otg,66697865-722d-46f7-9467-2e6b69636164,rev?*
G04 #@! TF.SameCoordinates,Original*
G04 #@! TF.FileFunction,Soldermask,Top*
G04 #@! TF.FilePolarity,Negative*
%FSLAX46Y46*%
G04 Gerber Fmt 4.6, Leading zero omitted, Abs format (unit mm)*
G04 Created by KiCad (PCBNEW 8.0.4) date 2024-08-15 05:56:16*
%MOMM*%
%LPD*%
G01*
G04 APERTURE LIST*
G04 Aperture macros list*
%AMRoundRect*
0 Rectangle with rounded corners*
0 $1 Rounding radius*
0 $2 $3 $4 $5 $6 $7 $8 $9 X,Y pos of 4 corners*
0 Add a 4 corners polygon primitive as box body*
4,1,4,$2,$3,$4,$5,$6,$7,$8,$9,$2,$3,0*
0 Add four circle primitives for the rounded corners*
1,1,$1+$1,$2,$3*
1,1,$1+$1,$4,$5*
1,1,$1+$1,$6,$7*
1,1,$1+$1,$8,$9*
0 Add four rect primitives between the rounded corners*
20,1,$1+$1,$2,$3,$4,$5,0*
20,1,$1+$1,$4,$5,$6,$7,0*
20,1,$1+$1,$6,$7,$8,$9,0*
20,1,$1+$1,$8,$9,$2,$3,0*%
%AMHorizOval*
0 Thick line with rounded ends*
0 $1 width*
0 $2 $3 position (X,Y) of the first rounded end (center of the circle)*
0 $4 $5 position (X,Y) of the second rounded end (center of the circle)*
0 Add line between two ends*
20,1,$1,$2,$3,$4,$5,0*
0 Add two circle primitives to create the rounded ends*
1,1,$1,$2,$3*
1,1,$1,$4,$5*%
G04 Aperture macros list end*
%ADD10O,1.224000X1.524000*%
%ADD11RoundRect,0.112500X0.112500X-0.187500X0.112500X0.187500X-0.112500X0.187500X-0.112500X-0.187500X0*%
%ADD12HorizOval,1.224000X0.118202X0.092349X-0.118202X-0.092349X0*%
%ADD13RoundRect,0.112500X-0.078490X-0.204088X0.217014X0.026785X0.078490X0.204088X-0.217014X-0.026785X0*%
%ADD14O,1.524000X1.224000*%
%ADD15C,2.500000*%
%ADD16RoundRect,0.135000X-0.202436X-0.107097X0.040239X-0.225457X0.202436X0.107097X-0.040239X0.225457X0*%
%ADD17HorizOval,1.224000X0.092349X-0.118202X-0.092349X0.118202X0*%
%ADD18HorizOval,1.224000X0.134819X-0.065756X-0.134819X0.065756X0*%
%ADD19RoundRect,0.140000X-0.200354X-0.091423X0.051308X-0.214167X0.200354X0.091423X-0.051308X0.214167X0*%
%ADD20RoundRect,0.100000X-0.616818X0.189582X0.529144X-0.369341X0.616818X-0.189582X-0.529144X0.369341X0*%
%ADD21C,0.650000*%
%ADD22R,0.600000X1.450000*%
%ADD23R,0.300000X1.450000*%
%ADD24O,1.000000X2.100000*%
%ADD25O,1.000000X1.600000*%
G04 #@! TA.AperFunction,Profile*
%ADD26C,0.050000*%
G04 #@! TD*
G04 APERTURE END LIST*
D10*
X91057300Y-88742700D03*
X91057300Y-83742700D03*
D11*
X88557300Y-109602700D03*
X88557300Y-107502700D03*
D12*
X151826973Y-90859454D03*
X155767027Y-87781146D03*
X136277073Y-121991554D03*
X140217127Y-118913246D03*
D11*
X88557300Y-58002700D03*
X88557300Y-55902700D03*
D13*
X114738389Y-100368145D03*
X116393211Y-99075255D03*
X147403689Y-91142745D03*
X149058511Y-89849855D03*
X136849889Y-100732145D03*
X138504711Y-99439255D03*
D11*
X81607300Y-75202700D03*
X81607300Y-73102700D03*
D10*
X77157300Y-88742700D03*
X77157300Y-83742700D03*
D11*
X74657300Y-92402700D03*
X74657300Y-90302700D03*
X88557300Y-92402700D03*
X88557300Y-90302700D03*
D14*
X81607300Y-86242700D03*
X86607300Y-86242700D03*
D15*
X132618200Y-102886800D03*
D16*
X128541616Y-81600431D03*
X129458384Y-82047569D03*
D10*
X77157300Y-105942700D03*
X77157300Y-100942700D03*
D16*
X113541616Y-73276431D03*
X114458384Y-73723569D03*
D13*
X114021189Y-127387545D03*
X115676011Y-126094655D03*
D11*
X95507300Y-109602700D03*
X95507300Y-107502700D03*
D17*
X115313746Y-91098973D03*
X118392054Y-95039027D03*
D13*
X109742289Y-121910845D03*
X111397111Y-120617955D03*
D11*
X88557300Y-75202700D03*
X88557300Y-73102700D03*
X74657300Y-109602700D03*
X74657300Y-107502700D03*
D17*
X132429046Y-113005673D03*
X135507354Y-116945727D03*
D18*
X112753015Y-67404072D03*
X117246985Y-69595928D03*
D15*
X143500000Y-81500000D03*
X93195300Y-80395600D03*
D11*
X81607300Y-109602700D03*
X81607300Y-107502700D03*
X81607300Y-92402700D03*
X81607300Y-90302700D03*
D14*
X67707300Y-86242700D03*
X72707300Y-86242700D03*
D15*
X71229000Y-80243900D03*
D11*
X95507300Y-75202700D03*
X95507300Y-73102700D03*
D15*
X102000000Y-60500000D03*
D13*
X127574989Y-116798145D03*
X129229811Y-115505255D03*
D14*
X109407300Y-86242700D03*
X114407300Y-86242700D03*
D12*
X149830873Y-111402154D03*
X153770927Y-108323846D03*
D13*
X149686389Y-117162145D03*
X151341211Y-115869255D03*
D17*
X123871446Y-102052373D03*
X126949754Y-105992427D03*
D10*
X91057300Y-105942700D03*
X91057300Y-100942700D03*
D11*
X67707300Y-75202700D03*
X67707300Y-73102700D03*
D19*
X120602379Y-83160982D03*
X121465221Y-83581818D03*
D13*
X132570989Y-95255445D03*
X134225811Y-93962555D03*
X145407589Y-111685445D03*
X147062411Y-110392555D03*
D11*
X109407300Y-92402700D03*
X109407300Y-90302700D03*
D12*
X141273173Y-100448854D03*
X145213227Y-97370546D03*
D11*
X74657300Y-75202700D03*
X74657300Y-73102700D03*
D19*
X124568579Y-85789582D03*
X125431421Y-86210418D03*
D17*
X127433046Y-134548373D03*
X130511354Y-138488427D03*
D15*
X127000000Y-124000000D03*
D14*
X95507300Y-69042700D03*
X100507300Y-69042700D03*
D16*
X112041616Y-76276431D03*
X112958384Y-76723569D03*
D10*
X77157300Y-71542700D03*
X77157300Y-66542700D03*
D13*
X111999989Y-97000045D03*
X113654811Y-95707155D03*
D17*
X156536646Y-92826973D03*
X159614954Y-96767027D03*
D10*
X104957300Y-71542700D03*
X104957300Y-66542700D03*
D11*
X102457300Y-75202700D03*
X102457300Y-73102700D03*
D17*
X137425146Y-91462973D03*
X140503454Y-95403027D03*
D13*
X122578889Y-138340845D03*
X124233711Y-137047955D03*
X118299989Y-132864245D03*
X119954811Y-131571355D03*
D12*
X119161673Y-100084854D03*
X123101727Y-97006546D03*
D13*
X151682489Y-96619445D03*
X153337311Y-95326555D03*
D14*
X67707300Y-69042700D03*
X72707300Y-69042700D03*
D15*
X93062700Y-114216200D03*
D13*
X105463489Y-116434145D03*
X107118311Y-115141255D03*
D17*
X140986746Y-123959073D03*
X144065054Y-127899127D03*
D12*
X122723273Y-132580954D03*
X126663327Y-129502646D03*
D17*
X145982846Y-102416273D03*
X149061154Y-106356327D03*
D14*
X95507300Y-86242700D03*
X100507300Y-86242700D03*
D11*
X102457300Y-92402700D03*
X102457300Y-90302700D03*
D14*
X81607300Y-51842700D03*
X86607300Y-51842700D03*
D17*
X118875346Y-123595073D03*
X121953654Y-127535127D03*
D10*
X104957300Y-88742700D03*
X104957300Y-83742700D03*
D12*
X127719373Y-111038154D03*
X131659427Y-107959846D03*
D14*
X81607300Y-69042700D03*
X86607300Y-69042700D03*
D13*
X123296089Y-111321445D03*
X124950911Y-110028555D03*
D11*
X81607300Y-58002700D03*
X81607300Y-55902700D03*
D17*
X110317646Y-112641673D03*
X113395954Y-116581727D03*
X154540546Y-113369673D03*
X157618854Y-117309727D03*
D13*
X131853789Y-122274845D03*
X133508611Y-120981955D03*
D20*
X106639338Y-100076190D03*
X106354396Y-100660406D03*
X106069455Y-101244622D03*
X105784514Y-101828838D03*
X105499574Y-102413055D03*
X105214631Y-102997271D03*
X104929690Y-103581487D03*
X104644749Y-104165703D03*
X104359808Y-104749919D03*
X104074866Y-105334135D03*
X109220462Y-107843810D03*
X109505404Y-107259594D03*
X109790345Y-106675378D03*
X110075286Y-106091162D03*
X110360226Y-105506945D03*
X110645169Y-104922729D03*
X110930110Y-104338513D03*
X111215051Y-103754297D03*
X111499992Y-103170081D03*
X111784934Y-102585865D03*
D13*
X128292189Y-89778745D03*
X129947011Y-88485855D03*
X141128689Y-106208745D03*
X142783511Y-104915855D03*
D10*
X91057300Y-71542700D03*
X91057300Y-66542700D03*
D14*
X95507300Y-103442700D03*
X100507300Y-103442700D03*
D15*
X148467800Y-122442500D03*
D14*
X67707300Y-103442700D03*
X72707300Y-103442700D03*
D18*
X131753015Y-75904072D03*
X136246985Y-78095928D03*
D10*
X91057300Y-54342700D03*
X91057300Y-49342700D03*
D13*
X119017289Y-105844845D03*
X120672111Y-104551955D03*
D11*
X70707300Y-109602700D03*
X70707300Y-107502700D03*
D12*
X132715473Y-89495454D03*
X136655527Y-86417146D03*
D21*
X126992400Y-75761000D03*
X121212400Y-75761000D03*
D22*
X127352400Y-77206000D03*
X126552400Y-77206000D03*
D23*
X125352400Y-77206000D03*
X124352400Y-77206000D03*
X123852400Y-77206000D03*
X122852400Y-77206000D03*
D22*
X121652400Y-77206000D03*
X120852400Y-77206000D03*
X120852400Y-77206000D03*
X121652400Y-77206000D03*
D23*
X122352400Y-77206000D03*
X123352400Y-77206000D03*
X124852400Y-77206000D03*
X125852400Y-77206000D03*
D22*
X126552400Y-77206000D03*
X127352400Y-77206000D03*
D24*
X128422400Y-76291000D03*
D25*
X128422400Y-72111000D03*
D24*
X119782400Y-76291000D03*
D25*
X119782400Y-72111000D03*
D12*
X114165573Y-121627554D03*
X118105627Y-118549246D03*
D11*
X67707300Y-92402700D03*
X67707300Y-90302700D03*
D13*
X136132689Y-127751545D03*
X137787511Y-126458655D03*
D14*
X81607300Y-103442700D03*
X86607300Y-103442700D03*
D11*
X95507300Y-92402700D03*
X95507300Y-90302700D03*
D26*
X95500000Y-55000000D02*
X119500000Y-67000000D01*
X119500000Y-67000000D02*
X119500000Y-69000000D01*
X95500000Y-48000000D02*
X80000000Y-48000000D01*
X119500000Y-69000000D02*
X129000000Y-69000000D01*
X122500000Y-141000000D02*
X128500000Y-142000000D01*
X66000000Y-64500000D02*
X66000000Y-111000000D01*
X80000000Y-48000000D02*
X66000000Y-64500000D01*
X162500000Y-95000000D02*
X154500000Y-83500000D01*
X95500000Y-55000000D02*
X95500000Y-48000000D01*
X106500000Y-120500000D02*
X122500000Y-141000000D01*
X128500000Y-142000000D02*
X162000000Y-116500000D01*
X129000000Y-69000000D02*
X154500000Y-83500000D01*
X66000000Y-111000000D02*
X106500000Y-120500000D01*
X162000000Y-116500000D02*
X162500000Y-95000000D01*
M02*
